<svg xmlns="http://www.w3.org/2000/svg" xmlns:xlink="http://www.w3.org/1999/xlink" width="773.4" height="395.8" viewBox="0 0 773.4 395.8">
  <defs>
    <style>
      .cls-1 {
        isolation: isolate;
      }

      .cls-2 {
        fill: url(#Dégradé_sans_nom_126);
      }

      .cls-3 {
        fill: url(#linear-gradient);
      }

      .cls-4 {
        fill: url(#linear-gradient-2);
      }

      .cls-5 {
        fill: url(#linear-gradient-3);
      }

      .cls-6 {
        fill: url(#Dégradé_sans_nom_41);
      }

      .cls-7 {
        fill: url(#radial-gradient);
      }

      .cls-8 {
        fill: url(#Dégradé_sans_nom_1685);
      }

      .cls-9 {
        opacity: 0.7;
        mix-blend-mode: overlay;
        fill: url(#linear-gradient-4);
      }

      .cls-10 {
        fill: url(#linear-gradient-5);
      }

      .cls-11 {
        fill: url(#Dégradé_sans_nom_27);
      }

      .cls-12 {
        fill: #a84458;
      }
    </style>
    <linearGradient id="Dégradé_sans_nom_126" data-name="Dégradé sans nom 126" x1="669.48" y1="509.75" x2="827.27" y2="159.69" gradientUnits="userSpaceOnUse">
      <stop offset="0" stop-color="#744181"/>
      <stop offset="0.32" stop-color="#2f5089"/>
    </linearGradient>
    <linearGradient id="linear-gradient" x1="741.1" y1="364.58" x2="698.24" y2="155.76" gradientUnits="userSpaceOnUse">
      <stop offset="0" stop-color="#fff" stop-opacity="0.1"/>
      <stop offset="1" stop-opacity="0.4"/>
    </linearGradient>
    <linearGradient id="linear-gradient-2" x1="532.83" y1="391.87" x2="725.03" y2="117.69" gradientUnits="userSpaceOnUse">
      <stop offset="0" stop-color="#744181"/>
      <stop offset="0.7" stop-color="#564683"/>
      <stop offset="0.96" stop-color="#2f5089"/>
    </linearGradient>
    <linearGradient id="linear-gradient-3" x1="643.34" y1="212.91" x2="786.26" y2="100.98" gradientUnits="userSpaceOnUse">
      <stop offset="0" stop-opacity="0.3"/>
      <stop offset="0.19" stop-color="#3f3f3f" stop-opacity="0.24"/>
      <stop offset="1" stop-color="#fff" stop-opacity="0.05"/>
    </linearGradient>
    <radialGradient id="Dégradé_sans_nom_41" data-name="Dégradé sans nom 41" cx="807.86" cy="407.34" r="72.74" gradientUnits="userSpaceOnUse">
      <stop offset="0.05" stop-color="#2e2e2c" stop-opacity="0"/>
      <stop offset="0.88" stop-color="#0f0f0e" stop-opacity="0.34"/>
      <stop offset="1" stop-opacity="0.5"/>
    </radialGradient>
    <radialGradient id="radial-gradient" cx="728.3" cy="219.88" r="104.62" gradientUnits="userSpaceOnUse">
      <stop offset="0" stop-opacity="0.4"/>
      <stop offset="1" stop-color="#2e2e2c" stop-opacity="0"/>
    </radialGradient>
    <linearGradient id="Dégradé_sans_nom_1685" data-name="Dégradé sans nom 1685" x1="748.34" y1="191.17" x2="719.19" y2="385.05" gradientUnits="userSpaceOnUse">
      <stop offset="0" stop-color="#744181"/>
      <stop offset="0.83" stop-color="#ac3842"/>
    </linearGradient>
    <linearGradient id="linear-gradient-4" x1="611.32" y1="256.17" x2="861.15" y2="256.17" gradientUnits="userSpaceOnUse">
      <stop offset="0" stop-color="#fff" stop-opacity="0"/>
      <stop offset="0.18" stop-color="#fff" stop-opacity="0.01"/>
      <stop offset="0.34" stop-color="#fff" stop-opacity="0.06"/>
      <stop offset="0.5" stop-color="#fff" stop-opacity="0.13"/>
      <stop offset="0.65" stop-color="#fff" stop-opacity="0.23"/>
      <stop offset="0.79" stop-color="#fff" stop-opacity="0.36"/>
      <stop offset="0.93" stop-color="#fff" stop-opacity="0.51"/>
      <stop offset="1" stop-color="#fff" stop-opacity="0.6"/>
    </linearGradient>
    <linearGradient id="linear-gradient-5" x1="622.86" y1="229.02" x2="847.31" y2="334.43" gradientUnits="userSpaceOnUse">
      <stop offset="0" stop-color="#fff" stop-opacity="0.1"/>
      <stop offset="1" stop-opacity="0.1"/>
    </linearGradient>
    <linearGradient id="Dégradé_sans_nom_27" data-name="Dégradé sans nom 27" x1="88.07" y1="251.18" x2="582.07" y2="251.18" gradientUnits="userSpaceOnUse">
      <stop offset="0" stop-color="#324165"/>
      <stop offset="1" stop-color="#495787"/>
    </linearGradient>
  </defs>
  <title>ip9_logo</title>
  <g class="cls-1">
    <g id="Calque_2" data-name="Calque 2">
      <g id="_9_coloré" data-name="9 coloré">
        <path class="cls-2" d="M734.8,405.9H645.6s-35.9-.6-35.9,72H735.8c121.5-.5,125.5-126,124.8-126l.9-50V208s-.1-84.9-69.8-115.3c-49.5,5.9-94,45.5-106.6,93.9C697,154,735.5,154,735.5,154s54,0,54,54V351.7s-1.3,53.8-53.8,53.9" transform="translate(-88.1 -82.1)"/>
        <path class="cls-3" d="M734.9,405.9H645.6s-35.9-.6-35.9,72H735.8c121.5-.5,125.5-126,124.8-126l.9-50V208s-.1-84.9-69.8-115.3c-49.5,5.9-94,45.5-106.6,93.9,12-32.5,50.5-32.5,50.5-32.5s54,0,54,54V351.7s-1.3,53.8-53.8,53.9" transform="translate(-88.1 -82.1)"/>
        <path class="cls-4" d="M708.8,257.9c-13.9-5.6-27.3-19.3-27.3-50a61.6,61.6,0,0,1,3.5-21.4c12.6-48.3,57.1-87.9,106.5-93.8-15.2-6.6-33.6-10.7-56.1-10.7-72.7,0-103.4,42.1-116.4,77.6C629,206.3,665.9,245.2,708.8,257.9Z" transform="translate(-88.1 -82.1)"/>
        <path class="cls-5" d="M708.8,257.9c-13.9-5.6-27.3-19.3-27.3-50a61.6,61.6,0,0,1,3.5-21.4c12.6-48.3,57.1-87.9,106.5-93.8-15.2-6.6-33.6-10.7-56.1-10.7-72.7,0-103.4,42.1-116.4,77.6C629,206.3,665.9,245.2,708.8,257.9Z" transform="translate(-88.1 -82.1)"/>
        <path class="cls-6" d="M835.8,428.7c23.5-33.8,25.3-76.6,25.3-76.6l-16.9-23-34.2-4.3s-21.1-29.1-20.7,7.4c.3,34.7-3.4,38.9-10.3,51.8C779.1,387.5,827.4,427.2,835.8,428.7Z" transform="translate(-88.1 -82.1)"/>
        <polygon class="cls-7" points="773.4 170.6 773.2 123 701.4 118.9 701.2 177.9 757.1 205.9 772.5 270 772.5 170.7 773.4 170.6"/>
        <path class="cls-8" d="M735.5,261.8c-57.7,0-106.5-55.6-116.4-102.1a156.8,156.8,0,0,0-9.5,48.2s.3,125.8,125.8,125.8c102.5,0,100.4-15.9,125.8,18.9C856.6,237.7,793.1,261.8,735.5,261.8Z" transform="translate(-88.1 -82.1)"/>
        <path class="cls-9" d="M619.1,159.8c1.1,93.4,50.9,138,116.5,138s107.3-23,125.5,54.8c-25.3-34.8-23.1-18.8-125.5-18.8C598.8,333.8,603.3,186.9,619.1,159.8Z" transform="translate(-88.1 -82.1)"/>
        <path class="cls-10" d="M735.5,261.8c-57.7,0-106.5-55.6-116.4-102.1a156.8,156.8,0,0,0-9.5,48.2s.3,125.8,125.8,125.8c102.5,0,100.4-15.9,125.8,18.9C856.2,238.2,793.1,261.8,735.5,261.8Z" transform="translate(-88.1 -82.1)"/>
      </g>
      <g>
        <path class="cls-11" d="M98.1,203v96h-10V203Z" transform="translate(-88.1 -82.1)"/>
        <path class="cls-11" d="M123.1,299V202.1l67,73.2V203h10v98.2l-67-73.2V299Z" transform="translate(-88.1 -82.1)"/>
        <path class="cls-11" d="M234,287a20.2,20.2,0,0,0,12.3,4.2,19.5,19.5,0,0,0,13.6-5.5q5.6-5.2,5.6-12,0-8.8-5.8-12.9-3.5-2.5-12.8-4.7-13.2-3.2-18.2-7-8.3-6.4-8.3-20.5A27.6,27.6,0,0,1,248.1,201a27.7,27.7,0,0,1,24.6,15.1l-9,4.6a17.2,17.2,0,0,0-6.5-7,17,17,0,0,0-9.1-2.6,17.6,17.6,0,0,0-17.5,17.5q0,8.8,5.8,12.9,3.5,2.5,12.8,4.7,13.2,3.2,18.2,7,8.3,6.4,8.3,20.5,0,11.2-8.9,19.4a29.1,29.1,0,0,1-20.5,8.3,29.9,29.9,0,0,1-18.3-6.2q-8.4-6.3-10.4-15.6l9.9-2.1Q228.6,282.9,234,287Z" transform="translate(-88.1 -82.1)"/>
        <path class="cls-11" d="M286.1,203h61v10h-25v86h-10V213h-26Z" transform="translate(-88.1 -82.1)"/>
        <path class="cls-11" d="M403,275H362.8l-10.2,24H341.8L383,202.5l41,96.5H413.2Zm-3.7-10-16.4-38.5L366.4,265Z" transform="translate(-88.1 -82.1)"/>
        <path class="cls-11" d="M447.1,203v86h55v10h-65V203Z" transform="translate(-88.1 -82.1)"/>
        <path class="cls-11" d="M527.1,203v86h55v10h-65V203Z" transform="translate(-88.1 -82.1)"/>
      </g>
      <g>
        <path class="cls-12" d="M126.1,371v35h-3V310h26.5a30.5,30.5,0,0,1,0,61Zm0-58V368h23.4a27.5,27.5,0,0,0,0-54.9Z" transform="translate(-88.1 -82.1)"/>
        <path class="cls-12" d="M190.4,406,232,308.2,273.7,406h-3.3l-14.2-33.5H208L193.7,406Zm64.4-36.6L232,315.9l-22.8,53.5Z" transform="translate(-88.1 -82.1)"/>
        <path class="cls-12" d="M332.8,365.2,358.1,406h-3.6l-25.2-40.8H301.1v40.8h-3V310h33.7a29.2,29.2,0,0,1,20.6,7.9,26.2,26.2,0,0,1,0,38.7,28.1,28.1,0,0,1-18.9,8.5Zm-31.7-52.1v49.1h30.7a25.1,25.1,0,0,0,18.4-7.7,23.1,23.1,0,0,0,0-34.4,26.3,26.3,0,0,0-18.4-7Z" transform="translate(-88.1 -82.1)"/>
        <path class="cls-12" d="M416.2,313v93h-3V313H381.1v-3h67.3v3Z" transform="translate(-88.1 -82.1)"/>
        <path class="cls-12" d="M546.9,310l-38.1,63.4V406h-3V373.4l-38-63.4h3.5l36.1,60,36.1-60Z" transform="translate(-88.1 -82.1)"/>
      </g>
      <g>
        <path class="cls-12" d="M262.8,160.8h7.4v.8a8.4,8.4,0,0,1-2.1,5.8,7.3,7.3,0,0,1-10.6,0,9.2,9.2,0,0,1,0-11.6,6.8,6.8,0,0,1,5.3-2.3,8,8,0,0,1,3.2.7,8.2,8.2,0,0,1,2.7,1.9l-1.2,1.1a6.3,6.3,0,0,0-2.1-1.5,6.3,6.3,0,0,0-2.6-.5,5.2,5.2,0,0,0-4.1,1.8,7.5,7.5,0,0,0,0,9.4,5.6,5.6,0,0,0,8.2,0,6.6,6.6,0,0,0,1.6-3.9h-5.7Z" transform="translate(-88.1 -82.1)"/>
        <path class="cls-12" d="M274.9,169.4V153.7l10.9,11.9V153.9h1.6v15.9l-10.9-11.9v11.5Z" transform="translate(-88.1 -82.1)"/>
        <path class="cls-12" d="M303.5,153.9V164a5.7,5.7,0,1,1-11.5,0V153.9h1.6V164a4.1,4.1,0,0,0,8.2,0V153.9Z" transform="translate(-88.1 -82.1)"/>
        <path class="cls-12" d="M307.1,173.5l5.5-19.6h1.7l-5.5,19.6Z" transform="translate(-88.1 -82.1)"/>
        <path class="cls-12" d="M319.4,153.9v13.9h8.9v1.6H317.8V153.9Z" transform="translate(-88.1 -82.1)"/>
        <path class="cls-12" d="M334.6,153.9v15.5H333V153.9Z" transform="translate(-88.1 -82.1)"/>
        <path class="cls-12" d="M340.1,169.4V153.7L351,165.6V153.9h1.6v15.9l-10.9-11.9v11.5Z" transform="translate(-88.1 -82.1)"/>
        <path class="cls-12" d="M368.7,153.9V164a5.7,5.7,0,1,1-11.5,0V153.9h1.6V164a4.1,4.1,0,0,0,8.2,0V153.9Z" transform="translate(-88.1 -82.1)"/>
        <path class="cls-12" d="M372.3,169.4l6.1-7.7-6.2-7.8h2.1l5.1,6.5,5.1-6.5h2.1l-6.2,7.8,6.1,7.7h-2.1l-5.1-6.4-5.1,6.4Z" transform="translate(-88.1 -82.1)"/>
      </g>
    </g>
  </g>
</svg>
